<mxfile host="app.diagrams.net" agent="Mozilla/5.0 (Windows NT 10.0; Win64; x64) AppleWebKit/537.36 (KHTML, like Gecko) Chrome/128.0.0.0 YaBrowser/24.10.0.0 Safari/537.36" version="26.0.4">
  <diagram name="Page-1" id="-H_mtQnk-PTXWXPvYvuk">
    <mxGraphModel dx="1152" dy="1131" grid="1" gridSize="10" guides="1" tooltips="1" connect="1" arrows="1" fold="1" page="1" pageScale="1" pageWidth="1169" pageHeight="827" math="0" shadow="0">
      <root>
        <mxCell id="0" />
        <mxCell id="1" parent="0" />
        <mxCell id="zA23MoTUsTF4_91t8viU-2" value="&lt;span style=&quot;color: rgba(0, 0, 0, 0.85); font-family: Menlo, &amp;quot;Ubuntu Mono&amp;quot;, consolas, source-code-pro, monospace; font-size: 14.4px; white-space-collapse: break-spaces; background-color: rgb(245, 245, 245);&quot;&gt;shard1-1&lt;/span&gt;&lt;div&gt;&lt;span style=&quot;background-color: rgb(245, 245, 245); color: rgba(0, 0, 0, 0.85);&quot;&gt;&lt;font face=&quot;Menlo, Ubuntu Mono, consolas, source-code-pro, monospace&quot; color=&quot;rgba(0, 0, 0, 0.85)&quot;&gt;&lt;span style=&quot;font-size: 14.4px; white-space-collapse: break-spaces;&quot;&gt;&lt;br&gt;&lt;/span&gt;&lt;/font&gt;&lt;/span&gt;&lt;/div&gt;&lt;div&gt;&lt;span style=&quot;background-color: rgb(245, 245, 245); color: rgba(0, 0, 0, 0.85);&quot;&gt;&lt;font face=&quot;Menlo, Ubuntu Mono, consolas, source-code-pro, monospace&quot; color=&quot;rgba(0, 0, 0, 0.85)&quot;&gt;&lt;span style=&quot;font-size: 14.4px; white-space-collapse: break-spaces;&quot;&gt;replSet=&lt;/span&gt;&lt;/font&gt;&lt;/span&gt;&lt;/div&gt;&lt;div&gt;&lt;span style=&quot;background-color: rgb(245, 245, 245); color: rgba(0, 0, 0, 0.85);&quot;&gt;&lt;font face=&quot;Menlo, Ubuntu Mono, consolas, source-code-pro, monospace&quot; color=&quot;rgba(0, 0, 0, 0.85)&quot;&gt;&lt;span style=&quot;font-size: 14.4px; white-space-collapse: break-spaces;&quot;&gt;shard1&lt;/span&gt;&lt;/font&gt;&lt;br&gt;&lt;/span&gt;&lt;/div&gt;" style="shape=cylinder3;whiteSpace=wrap;html=1;boundedLbl=1;backgroundOutline=1;size=15;" parent="1" vertex="1">
          <mxGeometry x="340" y="260" width="70" height="110" as="geometry" />
        </mxCell>
        <mxCell id="zA23MoTUsTF4_91t8viU-3" value="pymongo-api" style="rounded=1;whiteSpace=wrap;html=1;" parent="1" vertex="1">
          <mxGeometry x="220" y="30" width="120" height="60" as="geometry" />
        </mxCell>
        <mxCell id="zA23MoTUsTF4_91t8viU-4" style="edgeStyle=orthogonalEdgeStyle;rounded=0;orthogonalLoop=1;jettySize=auto;html=1;entryX=0.5;entryY=0;entryDx=0;entryDy=0;exitX=0.75;exitY=1;exitDx=0;exitDy=0;" parent="1" source="aL5jxNvkM52r-n1op3jd-13" target="aL5jxNvkM52r-n1op3jd-15" edge="1">
          <mxGeometry relative="1" as="geometry">
            <mxPoint x="360" y="240" as="sourcePoint" />
          </mxGeometry>
        </mxCell>
        <mxCell id="aL5jxNvkM52r-n1op3jd-1" value="&lt;span style=&quot;color: rgba(0, 0, 0, 0.85); font-family: Menlo, &amp;quot;Ubuntu Mono&amp;quot;, consolas, source-code-pro, monospace; font-size: 14.4px; white-space-collapse: break-spaces; background-color: rgb(245, 245, 245);&quot;&gt;shard1-2&lt;/span&gt;&lt;div&gt;&lt;span style=&quot;color: rgba(0, 0, 0, 0.85); font-family: Menlo, &amp;quot;Ubuntu Mono&amp;quot;, consolas, source-code-pro, monospace; font-size: 14.4px; white-space-collapse: break-spaces; background-color: rgb(245, 245, 245);&quot;&gt;&lt;div style=&quot;color: rgb(0, 0, 0); font-family: Helvetica; font-size: 12px; white-space-collapse: collapse; background-color: rgb(251, 251, 251);&quot;&gt;&lt;span style=&quot;background-color: rgb(245, 245, 245); color: rgba(0, 0, 0, 0.85);&quot;&gt;&lt;font face=&quot;Menlo, Ubuntu Mono, consolas, source-code-pro, monospace&quot; color=&quot;rgba(0, 0, 0, 0.85)&quot;&gt;&lt;span style=&quot;font-size: 14.4px; white-space-collapse: break-spaces;&quot;&gt;&lt;br&gt;&lt;/span&gt;&lt;/font&gt;&lt;/span&gt;&lt;/div&gt;&lt;div style=&quot;color: rgb(0, 0, 0); font-family: Helvetica; font-size: 12px; white-space-collapse: collapse; background-color: rgb(251, 251, 251);&quot;&gt;&lt;span style=&quot;background-color: rgb(245, 245, 245); color: rgba(0, 0, 0, 0.85);&quot;&gt;&lt;font face=&quot;Menlo, Ubuntu Mono, consolas, source-code-pro, monospace&quot; color=&quot;rgba(0, 0, 0, 0.85)&quot;&gt;&lt;span style=&quot;font-size: 14.4px; white-space-collapse: break-spaces;&quot;&gt;replSet=&lt;/span&gt;&lt;/font&gt;&lt;/span&gt;&lt;/div&gt;&lt;div style=&quot;color: rgb(0, 0, 0); font-family: Helvetica; font-size: 12px; white-space-collapse: collapse; background-color: rgb(251, 251, 251);&quot;&gt;&lt;span style=&quot;background-color: rgb(245, 245, 245); color: rgba(0, 0, 0, 0.85);&quot;&gt;&lt;font face=&quot;Menlo, Ubuntu Mono, consolas, source-code-pro, monospace&quot; color=&quot;rgba(0, 0, 0, 0.85)&quot;&gt;&lt;span style=&quot;font-size: 14.4px; white-space-collapse: break-spaces;&quot;&gt;shard1&lt;/span&gt;&lt;/font&gt;&lt;/span&gt;&lt;/div&gt;&lt;/span&gt;&lt;/div&gt;" style="shape=cylinder3;whiteSpace=wrap;html=1;boundedLbl=1;backgroundOutline=1;size=15;" parent="1" vertex="1">
          <mxGeometry x="445" y="260" width="70" height="110" as="geometry" />
        </mxCell>
        <mxCell id="aL5jxNvkM52r-n1op3jd-3" value="&lt;span style=&quot;color: rgba(0, 0, 0, 0.85); font-family: Menlo, &amp;quot;Ubuntu Mono&amp;quot;, consolas, source-code-pro, monospace; font-size: 14.4px; white-space-collapse: break-spaces; background-color: rgb(245, 245, 245);&quot;&gt;shard1-3&lt;/span&gt;&lt;div&gt;&lt;span style=&quot;color: rgba(0, 0, 0, 0.85); font-family: Menlo, &amp;quot;Ubuntu Mono&amp;quot;, consolas, source-code-pro, monospace; font-size: 14.4px; white-space-collapse: break-spaces; background-color: rgb(245, 245, 245);&quot;&gt;&lt;div style=&quot;color: rgb(0, 0, 0); font-family: Helvetica; font-size: 12px; white-space-collapse: collapse; background-color: rgb(251, 251, 251);&quot;&gt;&lt;span style=&quot;background-color: rgb(245, 245, 245); color: rgba(0, 0, 0, 0.85);&quot;&gt;&lt;font face=&quot;Menlo, Ubuntu Mono, consolas, source-code-pro, monospace&quot; color=&quot;rgba(0, 0, 0, 0.85)&quot;&gt;&lt;span style=&quot;font-size: 14.4px; white-space-collapse: break-spaces;&quot;&gt;&lt;br&gt;&lt;/span&gt;&lt;/font&gt;&lt;/span&gt;&lt;/div&gt;&lt;div style=&quot;color: rgb(0, 0, 0); font-family: Helvetica; font-size: 12px; white-space-collapse: collapse; background-color: rgb(251, 251, 251);&quot;&gt;&lt;span style=&quot;background-color: rgb(245, 245, 245); color: rgba(0, 0, 0, 0.85);&quot;&gt;&lt;font face=&quot;Menlo, Ubuntu Mono, consolas, source-code-pro, monospace&quot; color=&quot;rgba(0, 0, 0, 0.85)&quot;&gt;&lt;span style=&quot;font-size: 14.4px; white-space-collapse: break-spaces;&quot;&gt;replSet=&lt;/span&gt;&lt;/font&gt;&lt;/span&gt;&lt;/div&gt;&lt;div style=&quot;color: rgb(0, 0, 0); font-family: Helvetica; font-size: 12px; white-space-collapse: collapse; background-color: rgb(251, 251, 251);&quot;&gt;&lt;span style=&quot;background-color: rgb(245, 245, 245); color: rgba(0, 0, 0, 0.85);&quot;&gt;&lt;font face=&quot;Menlo, Ubuntu Mono, consolas, source-code-pro, monospace&quot; color=&quot;rgba(0, 0, 0, 0.85)&quot;&gt;&lt;span style=&quot;font-size: 14.4px; white-space-collapse: break-spaces;&quot;&gt;shard1&lt;/span&gt;&lt;/font&gt;&lt;/span&gt;&lt;/div&gt;&lt;/span&gt;&lt;/div&gt;" style="shape=cylinder3;whiteSpace=wrap;html=1;boundedLbl=1;backgroundOutline=1;size=15;" parent="1" vertex="1">
          <mxGeometry x="550" y="260" width="70" height="110" as="geometry" />
        </mxCell>
        <mxCell id="aL5jxNvkM52r-n1op3jd-5" value="&lt;span style=&quot;color: rgba(0, 0, 0, 0.85); font-family: Menlo, &amp;quot;Ubuntu Mono&amp;quot;, consolas, source-code-pro, monospace; font-size: 14.4px; white-space-collapse: break-spaces; background-color: rgb(245, 245, 245);&quot;&gt;shard2-1&lt;/span&gt;&lt;div&gt;&lt;span style=&quot;color: rgba(0, 0, 0, 0.85); font-family: Menlo, &amp;quot;Ubuntu Mono&amp;quot;, consolas, source-code-pro, monospace; font-size: 14.4px; white-space-collapse: break-spaces; background-color: rgb(245, 245, 245);&quot;&gt;&lt;div style=&quot;color: rgb(0, 0, 0); font-family: Helvetica; font-size: 12px; white-space-collapse: collapse; background-color: rgb(251, 251, 251);&quot;&gt;&lt;span style=&quot;background-color: rgb(245, 245, 245); color: rgba(0, 0, 0, 0.85);&quot;&gt;&lt;font face=&quot;Menlo, Ubuntu Mono, consolas, source-code-pro, monospace&quot; color=&quot;rgba(0, 0, 0, 0.85)&quot;&gt;&lt;span style=&quot;font-size: 14.4px; white-space-collapse: break-spaces;&quot;&gt;&lt;br&gt;&lt;/span&gt;&lt;/font&gt;&lt;/span&gt;&lt;/div&gt;&lt;div style=&quot;color: rgb(0, 0, 0); font-family: Helvetica; font-size: 12px; white-space-collapse: collapse; background-color: rgb(251, 251, 251);&quot;&gt;&lt;span style=&quot;background-color: rgb(245, 245, 245); color: rgba(0, 0, 0, 0.85);&quot;&gt;&lt;font face=&quot;Menlo, Ubuntu Mono, consolas, source-code-pro, monospace&quot; color=&quot;rgba(0, 0, 0, 0.85)&quot;&gt;&lt;span style=&quot;font-size: 14.4px; white-space-collapse: break-spaces;&quot;&gt;replSet=&lt;/span&gt;&lt;/font&gt;&lt;/span&gt;&lt;/div&gt;&lt;div style=&quot;color: rgb(0, 0, 0); font-family: Helvetica; font-size: 12px; white-space-collapse: collapse; background-color: rgb(251, 251, 251);&quot;&gt;&lt;span style=&quot;background-color: rgb(245, 245, 245); color: rgba(0, 0, 0, 0.85);&quot;&gt;&lt;font face=&quot;Menlo, Ubuntu Mono, consolas, source-code-pro, monospace&quot; color=&quot;rgba(0, 0, 0, 0.85)&quot;&gt;&lt;span style=&quot;font-size: 14.4px; white-space-collapse: break-spaces;&quot;&gt;shard2&lt;/span&gt;&lt;/font&gt;&lt;/span&gt;&lt;/div&gt;&lt;/span&gt;&lt;/div&gt;" style="shape=cylinder3;whiteSpace=wrap;html=1;boundedLbl=1;backgroundOutline=1;size=15;" parent="1" vertex="1">
          <mxGeometry x="690" y="260" width="70" height="110" as="geometry" />
        </mxCell>
        <mxCell id="aL5jxNvkM52r-n1op3jd-7" value="&lt;span style=&quot;color: rgba(0, 0, 0, 0.85); font-family: Menlo, &amp;quot;Ubuntu Mono&amp;quot;, consolas, source-code-pro, monospace; font-size: 14.4px; white-space-collapse: break-spaces; background-color: rgb(245, 245, 245);&quot;&gt;shard2-2&lt;/span&gt;&lt;div&gt;&lt;span style=&quot;color: rgba(0, 0, 0, 0.85); font-family: Menlo, &amp;quot;Ubuntu Mono&amp;quot;, consolas, source-code-pro, monospace; font-size: 14.4px; white-space-collapse: break-spaces; background-color: rgb(245, 245, 245);&quot;&gt;&lt;div style=&quot;white-space-collapse: collapse; color: rgb(0, 0, 0); font-family: Helvetica; font-size: 12px; background-color: rgb(251, 251, 251);&quot;&gt;&lt;span style=&quot;background-color: rgb(245, 245, 245); color: rgba(0, 0, 0, 0.85);&quot;&gt;&lt;font face=&quot;Menlo, Ubuntu Mono, consolas, source-code-pro, monospace&quot; color=&quot;rgba(0, 0, 0, 0.85)&quot;&gt;&lt;span style=&quot;font-size: 14.4px; white-space-collapse: break-spaces;&quot;&gt;&lt;br&gt;&lt;/span&gt;&lt;/font&gt;&lt;/span&gt;&lt;/div&gt;&lt;div style=&quot;white-space-collapse: collapse; color: rgb(0, 0, 0); font-family: Helvetica; font-size: 12px; background-color: rgb(251, 251, 251);&quot;&gt;&lt;span style=&quot;background-color: rgb(245, 245, 245); color: rgba(0, 0, 0, 0.85);&quot;&gt;&lt;font face=&quot;Menlo, Ubuntu Mono, consolas, source-code-pro, monospace&quot; color=&quot;rgba(0, 0, 0, 0.85)&quot;&gt;&lt;span style=&quot;font-size: 14.4px; white-space-collapse: break-spaces;&quot;&gt;replSet=&lt;/span&gt;&lt;/font&gt;&lt;/span&gt;&lt;/div&gt;&lt;div style=&quot;white-space-collapse: collapse; color: rgb(0, 0, 0); font-family: Helvetica; font-size: 12px; background-color: rgb(251, 251, 251);&quot;&gt;&lt;span style=&quot;background-color: rgb(245, 245, 245); color: rgba(0, 0, 0, 0.85);&quot;&gt;&lt;font face=&quot;Menlo, Ubuntu Mono, consolas, source-code-pro, monospace&quot; color=&quot;rgba(0, 0, 0, 0.85)&quot;&gt;&lt;span style=&quot;font-size: 14.4px; white-space-collapse: break-spaces;&quot;&gt;shard2&lt;/span&gt;&lt;/font&gt;&lt;/span&gt;&lt;/div&gt;&lt;/span&gt;&lt;/div&gt;" style="shape=cylinder3;whiteSpace=wrap;html=1;boundedLbl=1;backgroundOutline=1;size=15;" parent="1" vertex="1">
          <mxGeometry x="790" y="260" width="70" height="110" as="geometry" />
        </mxCell>
        <mxCell id="aL5jxNvkM52r-n1op3jd-9" value="&lt;span style=&quot;color: rgba(0, 0, 0, 0.85); font-family: Menlo, &amp;quot;Ubuntu Mono&amp;quot;, consolas, source-code-pro, monospace; font-size: 14.4px; white-space-collapse: break-spaces; background-color: rgb(245, 245, 245);&quot;&gt;shard2-3&lt;/span&gt;&lt;div&gt;&lt;span style=&quot;color: rgba(0, 0, 0, 0.85); font-family: Menlo, &amp;quot;Ubuntu Mono&amp;quot;, consolas, source-code-pro, monospace; font-size: 14.4px; white-space-collapse: break-spaces; background-color: rgb(245, 245, 245);&quot;&gt;&lt;div style=&quot;white-space-collapse: collapse; color: rgb(0, 0, 0); font-family: Helvetica; font-size: 12px; background-color: rgb(251, 251, 251);&quot;&gt;&lt;span style=&quot;background-color: rgb(245, 245, 245); color: rgba(0, 0, 0, 0.85);&quot;&gt;&lt;font face=&quot;Menlo, Ubuntu Mono, consolas, source-code-pro, monospace&quot; color=&quot;rgba(0, 0, 0, 0.85)&quot;&gt;&lt;span style=&quot;font-size: 14.4px; white-space-collapse: break-spaces;&quot;&gt;&lt;br&gt;&lt;/span&gt;&lt;/font&gt;&lt;/span&gt;&lt;/div&gt;&lt;div style=&quot;white-space-collapse: collapse; color: rgb(0, 0, 0); font-family: Helvetica; font-size: 12px; background-color: rgb(251, 251, 251);&quot;&gt;&lt;span style=&quot;background-color: rgb(245, 245, 245); color: rgba(0, 0, 0, 0.85);&quot;&gt;&lt;font face=&quot;Menlo, Ubuntu Mono, consolas, source-code-pro, monospace&quot; color=&quot;rgba(0, 0, 0, 0.85)&quot;&gt;&lt;span style=&quot;font-size: 14.4px; white-space-collapse: break-spaces;&quot;&gt;replSet=&lt;/span&gt;&lt;/font&gt;&lt;/span&gt;&lt;/div&gt;&lt;div style=&quot;white-space-collapse: collapse; color: rgb(0, 0, 0); font-family: Helvetica; font-size: 12px; background-color: rgb(251, 251, 251);&quot;&gt;&lt;span style=&quot;background-color: rgb(245, 245, 245); color: rgba(0, 0, 0, 0.85);&quot;&gt;&lt;font face=&quot;Menlo, Ubuntu Mono, consolas, source-code-pro, monospace&quot; color=&quot;rgba(0, 0, 0, 0.85)&quot;&gt;&lt;span style=&quot;font-size: 14.4px; white-space-collapse: break-spaces;&quot;&gt;shard2&lt;/span&gt;&lt;/font&gt;&lt;/span&gt;&lt;/div&gt;&lt;/span&gt;&lt;/div&gt;" style="shape=cylinder3;whiteSpace=wrap;html=1;boundedLbl=1;backgroundOutline=1;size=15;" parent="1" vertex="1">
          <mxGeometry x="885" y="260" width="70" height="110" as="geometry" />
        </mxCell>
        <mxCell id="aL5jxNvkM52r-n1op3jd-14" value="" style="edgeStyle=orthogonalEdgeStyle;rounded=0;orthogonalLoop=1;jettySize=auto;html=1;exitX=0.25;exitY=1;exitDx=0;exitDy=0;entryX=0.5;entryY=0;entryDx=0;entryDy=0;" parent="1" source="aL5jxNvkM52r-n1op3jd-13" target="aL5jxNvkM52r-n1op3jd-11" edge="1">
          <mxGeometry relative="1" as="geometry" />
        </mxCell>
        <mxCell id="aL5jxNvkM52r-n1op3jd-16" value="" style="edgeStyle=orthogonalEdgeStyle;rounded=0;orthogonalLoop=1;jettySize=auto;html=1;entryX=0.5;entryY=0;entryDx=0;entryDy=0;entryPerimeter=0;exitX=0.167;exitY=1;exitDx=0;exitDy=0;exitPerimeter=0;" parent="1" source="aL5jxNvkM52r-n1op3jd-11" target="zA23MoTUsTF4_91t8viU-2" edge="1">
          <mxGeometry relative="1" as="geometry" />
        </mxCell>
        <mxCell id="aL5jxNvkM52r-n1op3jd-11" value="&lt;span style=&quot;color: rgba(0, 0, 0, 0.85); font-family: Menlo, &amp;quot;Ubuntu Mono&amp;quot;, consolas, source-code-pro, monospace; font-size: 14.4px; white-space-collapse: break-spaces; background-color: rgb(245, 245, 245);&quot;&gt;shard1&lt;/span&gt;" style="rounded=1;whiteSpace=wrap;html=1;" parent="1" vertex="1">
          <mxGeometry x="420" y="150" width="120" height="60" as="geometry" />
        </mxCell>
        <mxCell id="dOpyyc7hu5PmMlvzzh72-2" value="" style="edgeStyle=orthogonalEdgeStyle;rounded=0;orthogonalLoop=1;jettySize=auto;html=1;" parent="1" source="aL5jxNvkM52r-n1op3jd-13" target="dOpyyc7hu5PmMlvzzh72-1" edge="1">
          <mxGeometry relative="1" as="geometry" />
        </mxCell>
        <mxCell id="7mUF4sNt0w27BbHS_7vW-2" value="" style="edgeStyle=orthogonalEdgeStyle;rounded=0;orthogonalLoop=1;jettySize=auto;html=1;entryX=0;entryY=0.5;entryDx=0;entryDy=0;exitX=1;exitY=0.5;exitDx=0;exitDy=0;" parent="1" source="7mUF4sNt0w27BbHS_7vW-1" target="aL5jxNvkM52r-n1op3jd-13" edge="1">
          <mxGeometry relative="1" as="geometry">
            <mxPoint x="570" y="90" as="sourcePoint" />
          </mxGeometry>
        </mxCell>
        <mxCell id="aL5jxNvkM52r-n1op3jd-13" value="router" style="rounded=1;whiteSpace=wrap;html=1;" parent="1" vertex="1">
          <mxGeometry x="600" y="30" width="120" height="60" as="geometry" />
        </mxCell>
        <mxCell id="aL5jxNvkM52r-n1op3jd-17" value="" style="edgeStyle=orthogonalEdgeStyle;rounded=0;orthogonalLoop=1;jettySize=auto;html=1;exitX=0.25;exitY=1;exitDx=0;exitDy=0;" parent="1" source="aL5jxNvkM52r-n1op3jd-15" target="aL5jxNvkM52r-n1op3jd-5" edge="1">
          <mxGeometry relative="1" as="geometry" />
        </mxCell>
        <mxCell id="aL5jxNvkM52r-n1op3jd-15" value="&lt;span style=&quot;color: rgba(0, 0, 0, 0.85); font-family: Menlo, &amp;quot;Ubuntu Mono&amp;quot;, consolas, source-code-pro, monospace; font-size: 14.4px; white-space-collapse: break-spaces; background-color: rgb(245, 245, 245);&quot;&gt;shard2&lt;/span&gt;" style="rounded=1;whiteSpace=wrap;html=1;" parent="1" vertex="1">
          <mxGeometry x="765" y="150" width="120" height="60" as="geometry" />
        </mxCell>
        <mxCell id="aL5jxNvkM52r-n1op3jd-18" style="edgeStyle=orthogonalEdgeStyle;rounded=0;orthogonalLoop=1;jettySize=auto;html=1;exitX=0.5;exitY=1;exitDx=0;exitDy=0;entryX=0.5;entryY=0;entryDx=0;entryDy=0;entryPerimeter=0;" parent="1" source="aL5jxNvkM52r-n1op3jd-11" target="aL5jxNvkM52r-n1op3jd-1" edge="1">
          <mxGeometry relative="1" as="geometry" />
        </mxCell>
        <mxCell id="aL5jxNvkM52r-n1op3jd-19" style="edgeStyle=orthogonalEdgeStyle;rounded=0;orthogonalLoop=1;jettySize=auto;html=1;exitX=0.75;exitY=1;exitDx=0;exitDy=0;entryX=0.5;entryY=0;entryDx=0;entryDy=0;entryPerimeter=0;" parent="1" source="aL5jxNvkM52r-n1op3jd-11" target="aL5jxNvkM52r-n1op3jd-3" edge="1">
          <mxGeometry relative="1" as="geometry" />
        </mxCell>
        <mxCell id="aL5jxNvkM52r-n1op3jd-20" style="edgeStyle=orthogonalEdgeStyle;rounded=0;orthogonalLoop=1;jettySize=auto;html=1;exitX=0.5;exitY=1;exitDx=0;exitDy=0;entryX=0.5;entryY=0;entryDx=0;entryDy=0;entryPerimeter=0;" parent="1" source="aL5jxNvkM52r-n1op3jd-15" target="aL5jxNvkM52r-n1op3jd-7" edge="1">
          <mxGeometry relative="1" as="geometry" />
        </mxCell>
        <mxCell id="aL5jxNvkM52r-n1op3jd-21" style="edgeStyle=orthogonalEdgeStyle;rounded=0;orthogonalLoop=1;jettySize=auto;html=1;exitX=0.75;exitY=1;exitDx=0;exitDy=0;entryX=0.5;entryY=0;entryDx=0;entryDy=0;entryPerimeter=0;" parent="1" source="aL5jxNvkM52r-n1op3jd-15" target="aL5jxNvkM52r-n1op3jd-9" edge="1">
          <mxGeometry relative="1" as="geometry" />
        </mxCell>
        <mxCell id="roH7OY2JJP-Qrr7P2rSU-3" value="" style="endArrow=classic;startArrow=classic;html=1;rounded=0;exitX=1;exitY=0.5;exitDx=0;exitDy=0;entryX=0;entryY=0.5;entryDx=0;entryDy=0;" parent="1" source="zA23MoTUsTF4_91t8viU-3" target="7mUF4sNt0w27BbHS_7vW-1" edge="1">
          <mxGeometry width="50" height="50" relative="1" as="geometry">
            <mxPoint x="560" y="600" as="sourcePoint" />
            <mxPoint x="450" y="60" as="targetPoint" />
          </mxGeometry>
        </mxCell>
        <mxCell id="dOpyyc7hu5PmMlvzzh72-1" value="configSrv" style="rounded=1;whiteSpace=wrap;html=1;" parent="1" vertex="1">
          <mxGeometry x="860" y="30" width="120" height="60" as="geometry" />
        </mxCell>
        <mxCell id="dOpyyc7hu5PmMlvzzh72-3" value="" style="endArrow=classic;html=1;rounded=0;entryX=0.5;entryY=1;entryDx=0;entryDy=0;exitX=1;exitY=0.5;exitDx=0;exitDy=0;" parent="1" source="aL5jxNvkM52r-n1op3jd-15" target="dOpyyc7hu5PmMlvzzh72-1" edge="1">
          <mxGeometry width="50" height="50" relative="1" as="geometry">
            <mxPoint x="560" y="600" as="sourcePoint" />
            <mxPoint x="610" y="550" as="targetPoint" />
            <Array as="points">
              <mxPoint x="920" y="180" />
            </Array>
          </mxGeometry>
        </mxCell>
        <mxCell id="dOpyyc7hu5PmMlvzzh72-4" value="" style="endArrow=none;dashed=1;html=1;dashPattern=1 3;strokeWidth=2;rounded=0;entryX=0;entryY=0.5;entryDx=0;entryDy=0;exitX=1;exitY=0.5;exitDx=0;exitDy=0;" parent="1" source="aL5jxNvkM52r-n1op3jd-11" target="aL5jxNvkM52r-n1op3jd-15" edge="1">
          <mxGeometry width="50" height="50" relative="1" as="geometry">
            <mxPoint x="560" y="600" as="sourcePoint" />
            <mxPoint x="610" y="550" as="targetPoint" />
          </mxGeometry>
        </mxCell>
        <mxCell id="7mUF4sNt0w27BbHS_7vW-1" value="redis" style="rounded=1;whiteSpace=wrap;html=1;" parent="1" vertex="1">
          <mxGeometry x="420" y="30" width="120" height="60" as="geometry" />
        </mxCell>
      </root>
    </mxGraphModel>
  </diagram>
</mxfile>
